999
dxfrw 0.5.10
0
SECTION
2
HEADER
9
$ACADVER
1
AC1021
9
$HANDSEED
5
20000
9
$DWGCODEPAGE
3
ANSI_1252
9
$INSBASE
10
0
20
0
30
0
9
$EXTMIN
10
-0.1
20
-0.1
30
0
9
$EXTMAX
10
367
20
131
30
0
9
$LIMMIN
10
0
20
0
9
$LIMMAX
10
420
20
297
9
$ORTHOMODE
70
0
9
$LTSCALE
40
1
9
$TEXTSTYLE
7
STANDARD
9
$CLAYER
8
0
9
$DIMASZ
40
2.5
9
$DIMLFAC
40
1
9
$DIMSCALE
40
1
9
$DIMEXO
40
0.625
9
$DIMEXE
40
1.25
9
$DIMTXT
40
2.5
9
$DIMTSZ
40
0
9
$DIMAUNIT
70
0
9
$DIMADEC
70
0
9
$DIMLUNIT
70
2
9
$DIMSTYLE
2
STANDARD
9
$DIMGAP
40
0.625
9
$DIMTIH
70
0
9
$LUNITS
70
2
9
$LUPREC
70
4
9
$AUNITS
70
0
9
$AUPREC
70
2
9
$SPLINESEGS
70
8
9
$GRIDMODE
70
1
9
$SNAPSTYLE
70
0
9
$PINSBASE
10
0
20
0
30
0
9
$PLIMMIN
10
0
20
0
9
$PLIMMAX
10
210
20
297
9
$INSUNITS
70
4
9
$PSVPSCALE
40
1
0
ENDSEC
0
SECTION
2
CLASSES
0
ENDSEC
0
SECTION
2
TABLES
0
TABLE
2
VPORT
5
8
330
0
100
AcDbSymbolTable
70
1
0
VPORT
5
31
330
2
100
AcDbSymbolTableRecord
100
AcDbViewportTableRecord
2
*ACTIVE
70
0
10
0
20
0
11
1
21
1
12
203.641097687
22
109.836807523
13
0
23
0
14
10
24
10
15
10
25
10
16
0
26
0
36
1
17
0
27
0
37
0
40
245.550660609
41
1.95647193585
42
50
43
0
44
0
50
0
51
0
71
0
72
100
73
1
74
3
75
0
76
1
77
0
78
0
281
0
65
1
110
0
120
0
130
0
111
1
121
0
131
0
112
0
122
1
132
0
79
0
146
0
348
10020
60
7
61
5
292
1
282
1
141
0
142
0
63
250
421
3358443
0
ENDTAB
0
TABLE
2
LTYPE
5
5
330
0
100
AcDbSymbolTable
70
4
0
LTYPE
5
14
330
5
100
AcDbSymbolTableRecord
100
AcDbLinetypeTableRecord
2
ByBlock
70
0
3

72
65
73
0
40
0
0
LTYPE
5
15
330
5
100
AcDbSymbolTableRecord
100
AcDbLinetypeTableRecord
2
ByLayer
70
0
3

72
65
73
0
40
0
0
LTYPE
5
16
330
5
100
AcDbSymbolTableRecord
100
AcDbLinetypeTableRecord
2
Continuous
70
0
3
Solid line
72
65
73
0
40
0
0
LTYPE
5
32
330
5
100
AcDbSymbolTableRecord
100
AcDbLinetypeTableRecord
2
DOT
70
0
3
Dot . . . . . . . . . . . . . . . . . . . . . .
72
65
73
2
40
6.35
49
0
74
0
49
-6.35
74
0
0
LTYPE
5
33
330
5
100
AcDbSymbolTableRecord
100
AcDbLinetypeTableRecord
2
DOT2
70
0
3
Dot (.5x) .....................................
72
65
73
2
40
3.175
49
0
74
0
49
-3.175
74
0
0
LTYPE
5
34
330
5
100
AcDbSymbolTableRecord
100
AcDbLinetypeTableRecord
2
DOTX2
70
0
3
Dot (2x) .  .  .  .  .  .  .  .  .  .  .  .  .
72
65
73
2
40
12.7
49
0
74
0
49
-12.7
74
0
0
LTYPE
5
35
330
5
100
AcDbSymbolTableRecord
100
AcDbLinetypeTableRecord
2
DASHED
70
0
3
Dot . . . . . . . . . . . . . . . . . . . . . .
72
65
73
2
40
19.05
49
12.7
74
0
49
-6.35
74
0
0
LTYPE
5
36
330
5
100
AcDbSymbolTableRecord
100
AcDbLinetypeTableRecord
2
DASHED2
70
0
3
Dashed (.5x) _ _ _ _ _ _ _ _ _ _ _ _ _ _ _ _ _
72
65
73
2
40
9.525
49
6.35
74
0
49
-3.175
74
0
0
LTYPE
5
37
330
5
100
AcDbSymbolTableRecord
100
AcDbLinetypeTableRecord
2
DASHEDX2
70
0
3
Dashed (2x) ____  ____  ____  ____  ____  ___
72
65
73
2
40
38.1
49
25.4
74
0
49
-12.7
74
0
0
LTYPE
5
38
330
5
100
AcDbSymbolTableRecord
100
AcDbLinetypeTableRecord
2
DASHDOT
70
0
3
Dash dot __ . __ . __ . __ . __ . __ . __ . __
72
65
73
4
40
25.4
49
12.7
74
0
49
-6.35
74
0
49
0
74
0
49
-6.35
74
0
0
LTYPE
5
39
330
5
100
AcDbSymbolTableRecord
100
AcDbLinetypeTableRecord
2
DASHDOT2
70
0
3
Dash dot (.5x) _._._._._._._._._._._._._._._.
72
65
73
4
40
12.7
49
6.35
74
0
49
-3.175
74
0
49
0
74
0
49
-3.175
74
0
0
LTYPE
5
3A
330
5
100
AcDbSymbolTableRecord
100
AcDbLinetypeTableRecord
2
DASHDOTX2
70
0
3
Dash dot (2x) ____  .  ____  .  ____  .  ___
72
65
73
4
40
50.8
49
25.4
74
0
49
-12.7
74
0
49
0
74
0
49
-12.7
74
0
0
LTYPE
5
3B
330
5
100
AcDbSymbolTableRecord
100
AcDbLinetypeTableRecord
2
DIVIDE
70
0
3
Divide ____ . . ____ . . ____ . . ____ . . ____
72
65
73
6
40
31.75
49
12.7
74
0
49
-6.35
74
0
49
0
74
0
49
-6.35
74
0
49
0
74
0
49
-6.35
74
0
0
LTYPE
5
3C
330
5
100
AcDbSymbolTableRecord
100
AcDbLinetypeTableRecord
2
DIVIDE2
70
0
3
Divide (.5x) __..__..__..__..__..__..__..__.._
72
65
73
6
40
15.875
49
6.35
74
0
49
-3.175
74
0
49
0
74
0
49
-3.175
74
0
49
0
74
0
49
-3.175
74
0
0
LTYPE
5
3D
330
5
100
AcDbSymbolTableRecord
100
AcDbLinetypeTableRecord
2
DIVIDEX2
70
0
3
Divide (2x) ________  .  .  ________  .  .  _
72
65
73
6
40
63.5
49
25.4
74
0
49
-12.7
74
0
49
0
74
0
49
-12.7
74
0
49
0
74
0
49
-12.7
74
0
0
LTYPE
5
3E
330
5
100
AcDbSymbolTableRecord
100
AcDbLinetypeTableRecord
2
BORDER
70
0
3
Border __ __ . __ __ . __ __ . __ __ . __ __ .
72
65
73
6
40
44.45
49
12.7
74
0
49
-6.35
74
0
49
12.7
74
0
49
-6.35
74
0
49
0
74
0
49
-6.35
74
0
0
LTYPE
5
3F
330
5
100
AcDbSymbolTableRecord
100
AcDbLinetypeTableRecord
2
BORDER2
70
0
3
Border (.5x) __.__.__.__.__.__.__.__.__.__.__.
72
65
73
6
40
22.225
49
6.35
74
0
49
-3.175
74
0
49
6.35
74
0
49
-3.175
74
0
49
0
74
0
49
-3.175
74
0
0
LTYPE
5
40
330
5
100
AcDbSymbolTableRecord
100
AcDbLinetypeTableRecord
2
BORDERX2
70
0
3
Border (2x) ____  ____  .  ____  ____  .  ___
72
65
73
6
40
88.9
49
25.4
74
0
49
-12.7
74
0
49
25.4
74
0
49
-12.7
74
0
49
0
74
0
49
-12.7
74
0
0
LTYPE
5
41
330
5
100
AcDbSymbolTableRecord
100
AcDbLinetypeTableRecord
2
CENTER
70
0
3
Center ____ _ ____ _ ____ _ ____ _ ____ _ ____
72
65
73
4
40
50.8
49
31.75
74
0
49
-6.35
74
0
49
6.35
74
0
49
-6.35
74
0
0
LTYPE
5
42
330
5
100
AcDbSymbolTableRecord
100
AcDbLinetypeTableRecord
2
CENTER2
70
0
3
Center (.5x) ___ _ ___ _ ___ _ ___ _ ___ _ ___
72
65
73
4
40
28.575
49
19.05
74
0
49
-3.175
74
0
49
3.175
74
0
49
-3.175
74
0
0
LTYPE
5
43
330
5
100
AcDbSymbolTableRecord
100
AcDbLinetypeTableRecord
2
CENTERX2
70
0
3
Center (2x) ________  __  ________  __  _____
72
65
73
4
40
101.6
49
63.5
74
0
49
-12.7
74
0
49
12.7
74
0
49
-12.7
74
0
0
ENDTAB
0
TABLE
2
LAYER
5
2
330
0
100
AcDbSymbolTable
70
1
0
LAYER
5
10
330
2
100
AcDbSymbolTableRecord
100
AcDbLayerTableRecord
2
0
70
0
62
7
6
CONTINUOUS
370
0
390
F
0
ENDTAB
0
TABLE
2
STYLE
5
3
330
0
100
AcDbSymbolTable
70
3
0
STYLE
5
44
330
2
100
AcDbSymbolTableRecord
100
AcDbTextStyleTableRecord
2
Standard
70
0
40
0
41
1
50
0
71
0
42
1
3
txt
4

0
ENDTAB
0
TABLE
2
VIEW
5
6
330
0
100
AcDbSymbolTable
70
0
0
ENDTAB
0
TABLE
2
UCS
5
7
330
0
100
AcDbSymbolTable
70
0
0
ENDTAB
0
TABLE
2
APPID
5
9
330
0
100
AcDbSymbolTable
70
1
0
APPID
5
12
330
9
100
AcDbSymbolTableRecord
100
AcDbRegAppTableRecord
2
ACAD
70
0
0
ENDTAB
0
TABLE
2
DIMSTYLE
5
A
330
0
100
AcDbSymbolTable
70
1
100
AcDbDimStyleTable
71
1
0
DIMSTYLE
105
45
330
A
100
AcDbSymbolTableRecord
100
AcDbDimStyleTableRecord
2
Standard
70
0
40
1
41
2.5
42
0.625
43
0.38
44
1.25
45
0
46
0
47
0
48
0
140
2.5
141
0.09
142
0
143
25.4
144
1
145
0
146
1
147
0.625
148
0
71
0
72
0
73
0
74
1
75
0
76
0
77
0
78
0
79
0
170
0
171
2
172
0
173
0
174
0
175
0
176
0
177
0
178
0
179
0
271
4
272
4
273
2
274
2
275
0
276
0
277
2
278
46
279
0
280
0
281
0
282
0
283
1
284
0
285
0
286
0
288
0
289
3
340
Standard
341

371
-2
372
-2
0
ENDTAB
0
TABLE
2
BLOCK_RECORD
5
1
330
0
100
AcDbSymbolTable
70
2
0
BLOCK_RECORD
5
1F
330
1
100
AcDbSymbolTableRecord
100
AcDbBlockTableRecord
2
*Model_Space
70
0
280
1
281
0
0
BLOCK_RECORD
5
1E
330
1
100
AcDbSymbolTableRecord
100
AcDbBlockTableRecord
2
*Paper_Space
70
0
280
1
281
0
0
BLOCK_RECORD
5
46
330
1
100
AcDbSymbolTableRecord
100
AcDbBlockTableRecord
2
servo_spline-0
70
0
280
1
281
0
0
BLOCK_RECORD
5
49
330
1
100
AcDbSymbolTableRecord
100
AcDbBlockTableRecord
2
servo_motor-0
70
0
280
1
281
0
0
ENDTAB
0
ENDSEC
0
SECTION
2
BLOCKS
0
BLOCK
5
20
330
1F
100
AcDbEntity
8
0
100
AcDbBlockBegin
2
*Model_Space
70
0
10
0
20
0
30
0
3
*Model_Space
1

0
ENDBLK
5
21
330
1F
100
AcDbEntity
8
0
100
AcDbBlockEnd
0
BLOCK
5
1C
330
1B
100
AcDbEntity
8
0
100
AcDbBlockBegin
2
*Paper_Space
70
0
10
0
20
0
30
0
3
*Paper_Space
1

0
ENDBLK
5
1D
330
1F
100
AcDbEntity
8
0
100
AcDbBlockEnd
0
BLOCK
5
47
330
46
100
AcDbEntity
8
0
100
AcDbBlockBegin
2
servo_spline-0
70
0
10
0
20
0
3
servo_spline-0
1

0
ARC
5
4C
100
AcDbEntity
8
0
6
ByLayer
62
256
370
-1
100
AcDbCircle
10
0
20
0
40
0
100
AcDbArc
50
0
51
0
0
CIRCLE
5
4D
100
AcDbEntity
8
0
6
ByLayer
62
256
370
-1
100
AcDbCircle
10
32
20
32
40
32
0
LWPOLYLINE
5
4E
100
AcDbEntity
8
0
6
CONTINUOUS
62
7
370
0
100
AcDbPolyline
90
51
70
0
43
0
10
32
20
35.035
10
31.6530807195
20
34.7462134821
10
31.2451689391
20
34.9398728815
10
30.9810148709
20
34.5736626522
10
30.5377666895
20
34.6597925175
10
30.3729842879
20
34.2393950105
10
29.9222419369
20
34.2125876076
10
29.8671850858
20
33.7644179444
10
29.4372703647
20
33.6263576809
10
29.4953984888
20
33.1785760099
10
29.1133245205
20
32.9379377199
10
29.280985216
20
32.51867981
10
28.9707591133
20
32.1905836825
10
29.237417642
20
31.8261930502
10
29.0185320515
20
31.4312545713
10
29.3674332775
20
31.1446272202
10
29.2536415862
20
30.7076618271
10
29.6628627622
20
30.5168076079
10
29.6613149204
20
30.0652714432
10
30.1051431748
20
29.9821824283
10
30.2159364392
20
29.54444717
10
30.6664844106
20
29.5743441478
10
30.8826572329
20
29.1779143119
10
31.3116153352
20
29.3189187454
10
31.6195847819
20
28.9887034766
10
32
20
29.2319555385
10
32.3804152181
20
28.9887034766
10
32.6883846648
20
29.3189187454
10
33.1173427671
20
29.1779143119
10
33.3335155894
20
29.5743441478
10
33.7840635608
20
29.54444717
10
33.8948568252
20
29.9821824283
10
34.3386850796
20
30.0652714432
10
34.3371372378
20
30.5168076079
10
34.7463584138
20
30.7076618271
10
34.6325667225
20
31.1446272202
10
34.9814679485
20
31.4312545713
10
34.762582358
20
31.8261930502
10
35.0292408867
20
32.1905836825
10
34.719014784
20
32.51867981
10
34.8866754795
20
32.9379377199
10
34.5046015112
20
33.1785760099
10
34.5627296353
20
33.6263576809
10
34.1328149142
20
33.7644179444
10
34.0777580631
20
34.2125876076
10
33.6270157121
20
34.2393950105
10
33.4622333103
20
34.6597925175
10
33.0189851292
20
34.5736626521
10
32.7548310609
20
34.9398728815
10
32.3469192805
20
34.7462134821
10
32
20
35.035
0
ENDBLK
5
48
330
46
100
AcDbEntity
8
0
100
AcDbBlockEnd
0
BLOCK
5
4A
330
49
100
AcDbEntity
8
0
100
AcDbBlockBegin
2
servo_motor-0
70
0
10
0
20
0
3
servo_motor-0
1

0
LWPOLYLINE
5
4F
100
AcDbEntity
8
0
6
ByLayer
62
256
370
-1
100
AcDbPolyline
90
5
70
0
43
0
10
82.5
20
16.75
10
79
20
16.75
10
79
20
9.25
10
82.5
20
9.25
10
82.5
20
16.75
0
LWPOLYLINE
5
50
100
AcDbEntity
8
0
6
ByLayer
62
256
370
-1
100
AcDbPolyline
90
5
70
0
43
0
10
60
20
17.5
10
60
20
8.5
10
55
20
8.5
10
55
20
17.5
10
60
20
17.5
0
LWPOLYLINE
5
51
100
AcDbEntity
8
0
6
ByLayer
62
256
370
-1
100
AcDbPolyline
90
22
70
0
43
0
10
46
20
17
10
46
20
9
10
43
20
9
10
43
20
0
10
43
20
0
10
32
20
0
10
32
20
3
10
14
20
3
10
14
20
0
10
3
20
0
10
3
20
9
10
0
20
9
10
0
20
17
10
3
20
17
10
3
20
26
10
14
20
26
10
14
20
23
10
32
20
23
10
32
20
26
10
43
20
26
10
43
20
17
10
46
20
17
0
LWPOLYLINE
5
52
100
AcDbEntity
8
0
6
ByLayer
62
256
370
-1
100
AcDbPolyline
90
5
70
0
43
0
10
122.5
20
16.75
10
119
20
16.75
10
119
20
9.25
10
122.5
20
9.25
10
122.5
20
16.75
0
LWPOLYLINE
5
53
100
AcDbEntity
8
0
6
ByLayer
62
256
370
-1
100
AcDbPolyline
90
23
70
0
43
0
10
62
20
23
10
62
20
23
10
62
20
26
10
76
20
26
10
76
20
23
10
79
20
23
10
79
20
19.75
10
85.5
20
19.75
10
85.5
20
6.25
10
79
20
6.25
10
79
20
3
10
76
20
3
10
76
20
0
10
62
20
0
10
62
20
3
10
49
20
3
10
49
20
3
10
49
20
9
10
52
20
9
10
52
20
17
10
49
20
17
10
49
20
23
10
62
20
23
0
LWPOLYLINE
5
54
100
AcDbEntity
8
0
6
ByLayer
62
256
370
-1
100
AcDbPolyline
90
23
70
0
43
0
10
102
20
23
10
102
20
23
10
102
20
26
10
116
20
26
10
116
20
23
10
119
20
23
10
119
20
19.75
10
125.5
20
19.75
10
125.5
20
6.25
10
119
20
6.25
10
119
20
3
10
116
20
3
10
116
20
0
10
102
20
0
10
102
20
3
10
89
20
3
10
89
20
3
10
89
20
9
10
92
20
9
10
92
20
17
10
89
20
17
10
89
20
23
10
102
20
23
0
LWPOLYLINE
5
55
100
AcDbEntity
8
0
6
ByLayer
62
256
370
-1
100
AcDbPolyline
90
23
70
0
43
0
10
0
20
63
10
0
20
53
10
3
20
53
10
3
20
39
10
0
20
39
10
0
20
29
10
0
20
29
10
0
20
29
10
46
20
29
10
46
20
29
10
46
20
29
10
46
20
29
10
46
20
39
10
46
20
39
10
43
20
39
10
43
20
53
10
46
20
53
10
46
20
63
10
32
20
63
10
32
20
66
10
14
20
66
10
14
20
63
10
0
20
63
0
LWPOLYLINE
5
56
100
AcDbEntity
8
0
6
ByLayer
62
256
370
-1
100
AcDbPolyline
90
23
70
0
43
0
10
49
20
63
10
49
20
53
10
52
20
53
10
52
20
39
10
49
20
39
10
49
20
29
10
49
20
29
10
49
20
29
10
95
20
29
10
95
20
29
10
95
20
29
10
95
20
29
10
95
20
39
10
95
20
39
10
92
20
39
10
92
20
53
10
95
20
53
10
95
20
63
10
81
20
63
10
81
20
66
10
63
20
66
10
63
20
63
10
49
20
63
0
INSERT
5
57
100
AcDbEntity
8
0
6
ByLayer
62
256
370
-1
100
AcDbBlockReference
2
servo_spline-0
10
-67
20
1
30
0
41
1
42
1
43
0
50
0
70
1
71
1
44
0
45
0
0
ENDBLK
5
4B
330
49
100
AcDbEntity
8
0
100
AcDbBlockEnd
0
ENDSEC
0
SECTION
2
ENTITIES
0
ARC
5
58
100
AcDbEntity
8
0
6
ByLayer
62
256
370
-1
100
AcDbCircle
10
-0.1
20
-0.1
40
0
100
AcDbArc
50
0
51
0
0
LWPOLYLINE
5
59
100
AcDbEntity
8
0
6
ByLayer
62
256
370
-1
100
AcDbPolyline
90
2
70
0
43
0
10
89.200000008
20
14.0002718604
42
117707.465757
10
89.2
20
14
42
117707.465757
0
LWPOLYLINE
5
5A
100
AcDbEntity
8
0
6
ByLayer
62
256
370
-1
100
AcDbPolyline
90
2
70
0
43
0
10
115.799999694
20
14.0002824739
42
117707.465757
10
115.799999686
20
14.0000106135
42
117707.465757
0
LWPOLYLINE
5
5B
100
AcDbEntity
8
0
6
ByLayer
62
256
370
-1
100
AcDbPolyline
90
2
70
0
43
0
10
115.800000331
20
43.000643206
42
117707.465757
10
115.800000323
20
43.000371345
42
117707.465757
0
LWPOLYLINE
5
5C
100
AcDbEntity
8
0
6
ByLayer
62
256
370
-1
100
AcDbPolyline
90
2
70
0
43
0
10
89.200000008
20
43.00027186
42
117707.465754
10
89.2
20
43
42
117707.465754
0
LWPOLYLINE
5
5D
100
AcDbEntity
8
0
6
CONTINUOUS
62
7
370
0
100
AcDbPolyline
90
5
70
0
43
0
10
96
20
30
10
96
20
33
10
99
20
33
10
99
20
30
10
96
20
30
0
LWPOLYLINE
5
5E
100
AcDbEntity
8
0
6
CONTINUOUS
62
7
370
0
100
AcDbPolyline
90
5
70
0
43
0
10
90
20
33
10
90
20
30
10
93
20
30
10
93
20
33
10
90
20
33
0
LWPOLYLINE
5
5F
100
AcDbEntity
8
0
6
CONTINUOUS
62
7
370
0
100
AcDbPolyline
90
5
70
0
43
0
10
90
20
27
10
90
20
24
10
93
20
24
10
93
20
27
10
90
20
27
0
LWPOLYLINE
5
60
100
AcDbEntity
8
0
6
CONTINUOUS
62
7
370
0
100
AcDbPolyline
90
5
70
0
43
0
10
96
20
27
10
96
20
24
10
99
20
24
10
99
20
27
10
96
20
27
0
LWPOLYLINE
5
61
100
AcDbEntity
8
0
6
CONTINUOUS
62
7
370
0
100
AcDbPolyline
90
5
70
0
43
0
10
93
20
39
10
96
20
39
10
96
20
42
10
93
20
42
10
93
20
39
0
LWPOLYLINE
5
62
100
AcDbEntity
8
0
6
CONTINUOUS
62
7
370
0
100
AcDbPolyline
90
5
70
0
43
0
10
114
20
30
10
114
20
33
10
117
20
33
10
117
20
30
10
114
20
30
0
LWPOLYLINE
5
63
100
AcDbEntity
8
0
6
CONTINUOUS
62
7
370
0
100
AcDbPolyline
90
5
70
0
43
0
10
114
20
27
10
114
20
24
10
117
20
24
10
117
20
27
10
114
20
27
0
LWPOLYLINE
5
64
100
AcDbEntity
8
0
6
CONTINUOUS
62
7
370
0
100
AcDbPolyline
90
5
70
0
43
0
10
93
20
15
10
96
20
15
10
96
20
18
10
93
20
18
10
93
20
15
0
LWPOLYLINE
5
65
100
AcDbEntity
8
0
6
CONTINUOUS
62
7
370
0
100
AcDbPolyline
90
5
70
0
43
0
10
93
20
9
10
93
20
6
10
96
20
6
10
96
20
9
10
93
20
9
0
LWPOLYLINE
5
66
100
AcDbEntity
8
0
6
CONTINUOUS
62
7
370
0
100
AcDbPolyline
90
5
70
0
43
0
10
93
20
48
10
96
20
48
10
96
20
51
10
93
20
51
10
93
20
48
0
LWPOLYLINE
5
67
100
AcDbEntity
8
0
6
CONTINUOUS
62
7
370
0
100
AcDbPolyline
90
5
70
0
43
0
10
153
20
30
10
153
20
27
10
156
20
27
10
156
20
30
10
153
20
30
0
LWPOLYLINE
5
68
100
AcDbEntity
8
0
6
CONTINUOUS
62
7
370
0
100
AcDbPolyline
90
5
70
0
43
0
10
159
20
30
10
159
20
27
10
162
20
27
10
162
20
30
10
159
20
30
0
LWPOLYLINE
5
69
100
AcDbEntity
8
0
6
CONTINUOUS
62
7
370
0
100
AcDbPolyline
90
5
70
0
43
0
10
156
20
18
10
156
20
15
10
159
20
15
10
159
20
18
10
156
20
18
0
LWPOLYLINE
5
6A
100
AcDbEntity
8
0
6
CONTINUOUS
62
7
370
0
100
AcDbPolyline
90
5
70
0
43
0
10
156
20
9
10
156
20
6
10
159
20
6
10
159
20
9
10
156
20
9
0
LWPOLYLINE
5
6B
100
AcDbEntity
8
0
6
CONTINUOUS
62
7
370
0
100
AcDbPolyline
90
5
70
0
43
0
10
144
20
9
10
144
20
6
10
147
20
6
10
147
20
9
10
144
20
9
0
LWPOLYLINE
5
6C
100
AcDbEntity
8
0
6
CONTINUOUS
62
7
370
0
100
AcDbPolyline
90
5
70
0
43
0
10
132
20
6
10
135
20
6
10
135
20
9
10
132
20
9
10
132
20
6
0
LWPOLYLINE
5
6D
100
AcDbEntity
8
0
6
CONTINUOUS
62
7
370
0
100
AcDbPolyline
90
5
70
0
43
0
10
132
20
21
10
132
20
18
10
135
20
18
10
135
20
21
10
132
20
21
0
LWPOLYLINE
5
6E
100
AcDbEntity
8
0
6
CONTINUOUS
62
7
370
0
100
AcDbPolyline
90
5
70
0
43
0
10
132
20
39
10
132
20
36
10
135
20
36
10
135
20
39
10
132
20
39
0
LWPOLYLINE
5
6F
100
AcDbEntity
8
0
6
CONTINUOUS
62
7
370
0
100
AcDbPolyline
90
5
70
0
43
0
10
168
20
9
10
168
20
6
10
171
20
6
10
171
20
9
10
168
20
9
0
LWPOLYLINE
5
70
100
AcDbEntity
8
0
6
CONTINUOUS
62
7
370
0
100
AcDbPolyline
90
5
70
0
43
0
10
180
20
6
10
180
20
9
10
183
20
9
10
183
20
6
10
180
20
6
0
LWPOLYLINE
5
71
100
AcDbEntity
8
0
6
CONTINUOUS
62
7
370
0
100
AcDbPolyline
90
5
70
0
43
0
10
180
20
18
10
183
20
18
10
183
20
21
10
180
20
21
10
180
20
18
0
LWPOLYLINE
5
72
100
AcDbEntity
8
0
6
CONTINUOUS
62
7
370
0
100
AcDbPolyline
90
5
70
0
43
0
10
180
20
39
10
180
20
36
10
183
20
36
10
183
20
39
10
180
20
39
0
LWPOLYLINE
5
73
100
AcDbEntity
8
0
6
CONTINUOUS
62
7
370
0
100
AcDbPolyline
90
5
70
0
43
0
10
156
20
42
10
156
20
39
10
159
20
39
10
159
20
42
10
156
20
42
0
LWPOLYLINE
5
74
100
AcDbEntity
8
0
6
CONTINUOUS
62
7
370
0
100
AcDbPolyline
90
5
70
0
43
0
10
156
20
51
10
156
20
48
10
159
20
48
10
159
20
51
10
156
20
51
0
LWPOLYLINE
5
75
100
AcDbEntity
8
0
6
CONTINUOUS
62
7
370
0
100
AcDbPolyline
90
5
70
0
43
0
10
168
20
51
10
168
20
48
10
171
20
48
10
171
20
51
10
168
20
51
0
LWPOLYLINE
5
76
100
AcDbEntity
8
0
6
CONTINUOUS
62
7
370
0
100
AcDbPolyline
90
5
70
0
43
0
10
180
20
51
10
180
20
48
10
183
20
48
10
183
20
51
10
180
20
51
0
LWPOLYLINE
5
77
100
AcDbEntity
8
0
6
CONTINUOUS
62
7
370
0
100
AcDbPolyline
90
5
70
0
43
0
10
144
20
51
10
144
20
48
10
147
20
48
10
147
20
51
10
144
20
51
0
LWPOLYLINE
5
78
100
AcDbEntity
8
0
6
CONTINUOUS
62
7
370
0
100
AcDbPolyline
90
5
70
0
43
0
10
132
20
51
10
132
20
48
10
135
20
48
10
135
20
51
10
132
20
51
0
LWPOLYLINE
5
79
100
AcDbEntity
8
0
6
CONTINUOUS
62
7
370
0
100
AcDbPolyline
90
5
70
0
43
0
10
213
20
27
10
216
20
27
10
216
20
30
10
213
20
30
10
213
20
27
0
LWPOLYLINE
5
7A
100
AcDbEntity
8
0
6
CONTINUOUS
62
7
370
0
100
AcDbPolyline
90
5
70
0
43
0
10
213
20
39
10
216
20
39
10
216
20
42
10
213
20
42
10
213
20
39
0
LWPOLYLINE
5
7B
100
AcDbEntity
8
0
6
CONTINUOUS
62
7
370
0
100
AcDbPolyline
90
5
70
0
43
0
10
207
20
42
10
210
20
42
10
210
20
45
10
207
20
45
10
207
20
42
0
LWPOLYLINE
5
7C
100
AcDbEntity
8
0
6
CONTINUOUS
62
7
370
0
100
AcDbPolyline
90
5
70
0
43
0
10
207
20
57
10
210
20
57
10
210
20
54
10
207
20
54
10
207
20
57
0
LWPOLYLINE
5
7D
100
AcDbEntity
8
0
6
CONTINUOUS
62
7
370
0
100
AcDbPolyline
90
5
70
0
43
0
10
213
20
60
10
213
20
57
10
216
20
57
10
216
20
60
10
213
20
60
0
LWPOLYLINE
5
7E
100
AcDbEntity
8
0
6
CONTINUOUS
62
7
370
0
100
AcDbPolyline
90
5
70
0
43
0
10
210
20
3
10
210
20
6
10
207
20
6
10
207
20
3
10
210
20
3
0
LWPOLYLINE
5
7F
100
AcDbEntity
8
0
6
CONTINUOUS
62
7
370
0
100
AcDbPolyline
90
5
70
0
43
0
10
213
20
72
10
213
20
69
10
216
20
69
10
216
20
72
10
213
20
72
0
LWPOLYLINE
5
80
100
AcDbEntity
8
0
6
CONTINUOUS
62
7
370
0
100
AcDbPolyline
90
5
70
0
43
0
10
210
20
96
10
207
20
96
10
207
20
93
10
210
20
93
10
210
20
96
0
LWPOLYLINE
5
81
100
AcDbEntity
8
0
6
CONTINUOUS
62
7
370
0
100
AcDbPolyline
90
5
70
0
43
0
10
210
20
84
10
210
20
81
10
207
20
81
10
207
20
84
10
210
20
84
0
LWPOLYLINE
5
82
100
AcDbEntity
8
0
6
CONTINUOUS
62
7
370
0
100
AcDbPolyline
90
5
70
0
43
0
10
171
20
69
10
171
20
66
10
168
20
66
10
168
20
69
10
171
20
69
0
LWPOLYLINE
5
83
100
AcDbEntity
8
0
6
CONTINUOUS
62
7
370
0
100
AcDbPolyline
90
5
70
0
43
0
10
171
20
81
10
171
20
78
10
168
20
78
10
168
20
81
10
171
20
81
0
LWPOLYLINE
5
84
100
AcDbEntity
8
0
6
CONTINUOUS
62
7
370
0
100
AcDbPolyline
90
5
70
0
43
0
10
147
20
75
10
150
20
75
10
150
20
78
10
147
20
78
10
147
20
75
0
LWPOLYLINE
5
85
100
AcDbEntity
8
0
6
CONTINUOUS
62
7
370
0
100
AcDbPolyline
90
5
70
0
43
0
10
150
20
84
10
153
20
84
10
153
20
87
10
150
20
87
10
150
20
84
0
LWPOLYLINE
5
86
100
AcDbEntity
8
0
6
CONTINUOUS
62
7
370
0
100
AcDbPolyline
90
5
70
0
43
0
10
147
20
84
10
144
20
84
10
144
20
87
10
147
20
87
10
147
20
84
0
LWPOLYLINE
5
87
100
AcDbEntity
8
0
6
CONTINUOUS
62
7
370
0
100
AcDbPolyline
90
5
70
0
43
0
10
129
20
69
10
129
20
66
10
126
20
66
10
126
20
69
10
129
20
69
0
LWPOLYLINE
5
88
100
AcDbEntity
8
0
6
CONTINUOUS
62
7
370
0
100
AcDbPolyline
90
5
70
0
43
0
10
129
20
81
10
129
20
78
10
126
20
78
10
126
20
81
10
129
20
81
0
LWPOLYLINE
5
89
100
AcDbEntity
8
0
6
CONTINUOUS
62
7
370
0
100
AcDbPolyline
90
5
70
0
43
0
10
126
20
99
10
126
20
96
10
129
20
96
10
129
20
99
10
126
20
99
0
LWPOLYLINE
5
8A
100
AcDbEntity
8
0
6
CONTINUOUS
62
7
370
0
100
AcDbPolyline
90
5
70
0
43
0
10
147
20
102
10
147
20
99
10
150
20
99
10
150
20
102
10
147
20
102
0
LWPOLYLINE
5
8B
100
AcDbEntity
8
0
6
CONTINUOUS
62
7
370
0
100
AcDbPolyline
90
5
70
0
43
0
10
168
20
99
10
168
20
96
10
171
20
96
10
171
20
99
10
168
20
99
0
LWPOLYLINE
5
8C
100
AcDbEntity
8
0
6
CONTINUOUS
62
7
370
0
100
AcDbPolyline
90
5
70
0
43
0
10
147
20
111
10
147
20
108
10
150
20
108
10
150
20
111
10
147
20
111
0
LWPOLYLINE
5
8D
100
AcDbEntity
8
0
6
CONTINUOUS
62
7
370
0
100
AcDbPolyline
90
5
70
0
43
0
10
126
20
111
10
126
20
108
10
129
20
108
10
129
20
111
10
126
20
111
0
LWPOLYLINE
5
8E
100
AcDbEntity
8
0
6
CONTINUOUS
62
7
370
0
100
AcDbPolyline
90
5
70
0
43
0
10
168
20
111
10
168
20
108
10
171
20
108
10
171
20
111
10
168
20
111
0
LWPOLYLINE
5
8F
100
AcDbEntity
8
0
6
CONTINUOUS
62
7
370
0
100
AcDbPolyline
90
5
70
0
43
0
10
144
20
90
10
147
20
90
10
147
20
93
10
144
20
93
10
144
20
90
0
LWPOLYLINE
5
90
100
AcDbEntity
8
0
6
CONTINUOUS
62
7
370
0
100
AcDbPolyline
90
5
70
0
43
0
10
150
20
93
10
150
20
90
10
153
20
90
10
153
20
93
10
150
20
93
0
LWPOLYLINE
5
91
100
AcDbEntity
8
0
6
CONTINUOUS
62
7
370
0
100
AcDbPolyline
90
5
70
0
43
0
10
30
20
42
10
30
20
39
10
33
20
39
10
33
20
42
10
30
20
42
0
LWPOLYLINE
5
92
100
AcDbEntity
8
0
6
CONTINUOUS
62
7
370
0
100
AcDbPolyline
90
5
70
0
43
0
10
6
20
39
10
6
20
36
10
9
20
36
10
9
20
39
10
6
20
39
0
LWPOLYLINE
5
93
100
AcDbEntity
8
0
6
CONTINUOUS
62
7
370
0
100
AcDbPolyline
90
5
70
0
43
0
10
27
20
30
10
30
20
30
10
30
20
33
10
27
20
33
10
27
20
30
0
LWPOLYLINE
5
94
100
AcDbEntity
8
0
6
CONTINUOUS
62
7
370
0
100
AcDbPolyline
90
5
70
0
43
0
10
33
20
33
10
33
20
30
10
36
20
30
10
36
20
33
10
33
20
33
0
LWPOLYLINE
5
95
100
AcDbEntity
8
0
6
CONTINUOUS
62
7
370
0
100
AcDbPolyline
90
5
70
0
43
0
10
30
20
24
10
27
20
24
10
27
20
27
10
30
20
27
10
30
20
24
0
LWPOLYLINE
5
96
100
AcDbEntity
8
0
6
CONTINUOUS
62
7
370
0
100
AcDbPolyline
90
5
70
0
43
0
10
33
20
24
10
36
20
24
10
36
20
27
10
33
20
27
10
33
20
24
0
LWPOLYLINE
5
97
100
AcDbEntity
8
0
6
CONTINUOUS
62
7
370
0
100
AcDbPolyline
90
5
70
0
43
0
10
30
20
15
10
33
20
15
10
33
20
18
10
30
20
18
10
30
20
15
0
LWPOLYLINE
5
98
100
AcDbEntity
8
0
6
CONTINUOUS
62
7
370
0
100
AcDbPolyline
90
5
70
0
43
0
10
57
20
21
10
57
20
18
10
54
20
18
10
54
20
21
10
57
20
21
0
LWPOLYLINE
5
99
100
AcDbEntity
8
0
6
CONTINUOUS
62
7
370
0
100
AcDbPolyline
90
5
70
0
43
0
10
54
20
39
10
54
20
36
10
57
20
36
10
57
20
39
10
54
20
39
0
LWPOLYLINE
5
9A
100
AcDbEntity
8
0
6
CONTINUOUS
62
7
370
0
100
AcDbPolyline
90
5
70
0
43
0
10
6
20
21
10
6
20
18
10
9
20
18
10
9
20
21
10
6
20
21
0
LWPOLYLINE
5
9B
100
AcDbEntity
8
0
6
CONTINUOUS
62
7
370
0
100
AcDbPolyline
90
5
70
0
43
0
10
6
20
9
10
6
20
6
10
9
20
6
10
9
20
9
10
6
20
9
0
LWPOLYLINE
5
9C
100
AcDbEntity
8
0
6
CONTINUOUS
62
7
370
0
100
AcDbPolyline
90
5
70
0
43
0
10
18
20
9
10
18
20
6
10
21
20
6
10
21
20
9
10
18
20
9
0
LWPOLYLINE
5
9D
100
AcDbEntity
8
0
6
CONTINUOUS
62
7
370
0
100
AcDbPolyline
90
5
70
0
43
0
10
33
20
6
10
30
20
6
10
30
20
9
10
33
20
9
10
33
20
6
0
LWPOLYLINE
5
9E
100
AcDbEntity
8
0
6
CONTINUOUS
62
7
370
0
100
AcDbPolyline
90
5
70
0
43
0
10
42
20
9
10
45
20
9
10
45
20
6
10
42
20
6
10
42
20
9
0
LWPOLYLINE
5
9F
100
AcDbEntity
8
0
6
CONTINUOUS
62
7
370
0
100
AcDbPolyline
90
5
70
0
43
0
10
57
20
9
10
57
20
6
10
54
20
6
10
54
20
9
10
57
20
9
0
LWPOLYLINE
5
A0
100
AcDbEntity
8
0
6
CONTINUOUS
62
7
370
0
100
AcDbPolyline
90
5
70
0
43
0
10
6
20
51
10
6
20
48
10
9
20
48
10
9
20
51
10
6
20
51
0
LWPOLYLINE
5
A1
100
AcDbEntity
8
0
6
CONTINUOUS
62
7
370
0
100
AcDbPolyline
90
5
70
0
43
0
10
18
20
51
10
18
20
48
10
21
20
48
10
21
20
51
10
18
20
51
0
LWPOLYLINE
5
A2
100
AcDbEntity
8
0
6
CONTINUOUS
62
7
370
0
100
AcDbPolyline
90
5
70
0
43
0
10
30
20
51
10
30
20
48
10
33
20
48
10
33
20
51
10
30
20
51
0
LWPOLYLINE
5
A3
100
AcDbEntity
8
0
6
CONTINUOUS
62
7
370
0
100
AcDbPolyline
90
5
70
0
43
0
10
42
20
51
10
42
20
48
10
45
20
48
10
45
20
51
10
42
20
51
0
LWPOLYLINE
5
A4
100
AcDbEntity
8
0
6
CONTINUOUS
62
7
370
0
100
AcDbPolyline
90
5
70
0
43
0
10
54
20
51
10
54
20
48
10
57
20
48
10
57
20
51
10
54
20
51
0
LWPOLYLINE
5
A5
100
AcDbEntity
8
0
6
CONTINUOUS
62
7
370
0
100
AcDbPolyline
90
5
70
0
43
0
10
132
20
33
10
132
20
24
10
138
20
24
10
138
20
33
10
132
20
33
0
LWPOLYLINE
5
A6
100
AcDbEntity
8
0
6
CONTINUOUS
62
7
370
0
100
AcDbPolyline
90
5
70
0
43
0
10
207
20
15
10
210
20
15
10
210
20
18
10
207
20
18
10
207
20
15
0
LWPOLYLINE
5
A7
100
AcDbEntity
8
0
6
CONTINUOUS
62
7
370
0
100
AcDbPolyline
90
134
70
0
43
0
10
120
20
57
10
120
20
57
10
120
20
57
10
120
20
57
10
120
20
57
10
120
20
57
10
120
20
42
10
120
20
42
10
120
20
42
10
123
20
42
10
123
20
42
10
123
20
42
10
123
20
42
10
123
20
42
10
123
20
42
10
123
20
42
10
123
20
42
10
123
20
42
10
123
20
15
10
123
20
42
10
123
20
42
10
123
20
15
10
123
20
15
10
123
20
15
10
123
20
15
10
123
20
15
10
123
20
15
10
120
20
15
10
120
20
15
10
120
20
15
10
120
20
15
10
120
20
15
10
120
20
0
10
120
20
15
10
120
20
3.67394039744e-16
10
120
20
3.67394039744e-16
10
120
20
3.67394039744e-16
10
108
20
4.4408920985e-16
10
108
20
0
10
108
20
4.4408920985e-16
10
108
20
0
10
108
20
4.30211422042e-16
10
108
20
3
10
108
20
3
10
108
20
3
10
108
20
3
10
108
20
3
10
108
20
3
10
108
20
3
10
108
20
3
10
108
20
3
10
81
20
3
10
81
20
3
10
81
20
3
10
81
20
3
10
81
20
3
10
81
20
3
10
81
20
3
10
81
20
3
10
81
20
3
10
81
20
5.55111512313e-17
10
81
20
0
10
81
20
-4.30211422042e-16
10
81
20
1.38777878081e-17
10
81
20
-4.30211422042e-16
10
69
20
0
10
69
20
0
10
69
20
0
10
69
20
15
10
69
20
15
10
69
20
15
10
69
20
15
10
69
20
15
10
69
20
15
10
69
20
15
10
66
20
15
10
66
20
15
10
66
20
15
10
66
20
15
10
66
20
15
10
66
20
42
10
66
20
42
10
66
20
42
10
66
20
42
10
66
20
42
10
66
20
42
10
66
20
42
10
66
20
42
10
66
20
42
10
66
20
42
10
66
20
42
10
66
20
42
10
66
20
42
10
69
20
42
10
69
20
42
10
69
20
42
10
69
20
42
10
69
20
42
10
69
20
57
10
69
20
57
10
69
20
57
10
69
20
57
10
69
20
57
10
69
20
57
10
81
20
57
10
81
20
57
10
81
20
57
10
81
20
57
10
81
20
57
10
81
20
54
10
81
20
54
10
81
20
54
10
81
20
54
10
81
20
54
10
81
20
54
10
81
20
54
10
108
20
54
10
81
20
54
10
108
20
54
10
108
20
54
10
108
20
54
10
108
20
54
10
108
20
54
10
108
20
54
10
108
20
54
10
108
20
54
10
108
20
54
10
108
20
57
10
108
20
57
10
108
20
57
10
108
20
57
10
120
20
57
10
120
20
57
10
120
20
57
0
LWPOLYLINE
5
A8
100
AcDbEntity
8
0
6
CONTINUOUS
62
7
370
0
100
AcDbPolyline
90
134
70
0
43
0
10
174
20
117
10
174
20
117
10
174
20
117
10
174
20
117
10
174
20
117
10
174
20
117
10
174
20
102
10
174
20
102
10
174
20
102
10
177
20
102
10
177
20
102
10
177
20
102
10
177
20
102
10
177
20
102
10
177
20
102
10
177
20
102
10
177
20
102
10
177
20
102
10
177
20
75
10
177
20
102
10
177
20
102
10
177
20
75
10
177
20
75
10
177
20
75
10
177
20
75
10
177
20
75
10
177
20
75
10
174
20
75
10
174
20
75
10
174
20
75
10
174
20
75
10
174
20
75
10
174
20
60
10
174
20
75
10
174
20
60
10
174
20
60
10
174
20
60
10
162
20
60
10
162
20
60
10
162
20
60
10
162
20
60
10
162
20
60
10
162
20
63
10
162
20
63
10
162
20
63
10
162
20
63
10
162
20
63
10
162
20
63
10
162
20
63
10
162
20
63
10
162
20
63
10
135
20
63
10
135
20
63
10
135
20
63
10
135
20
63
10
135
20
63
10
135
20
63
10
135
20
63
10
135
20
63
10
135
20
63
10
135
20
60
10
135
20
60
10
135
20
60
10
135
20
60
10
135
20
60
10
123
20
60
10
123
20
60
10
123
20
60
10
123
20
75
10
123
20
75
10
123
20
75
10
123
20
75
10
123
20
75
10
123
20
75
10
123
20
75
10
120
20
75
10
120
20
75
10
120
20
75
10
120
20
75
10
120
20
75
10
120
20
102
10
120
20
102
10
120
20
102
10
120
20
102
10
120
20
102
10
120
20
102
10
120
20
102
10
120
20
102
10
120
20
102
10
120
20
102
10
120
20
102
10
120
20
102
10
120
20
102
10
123
20
102
10
123
20
102
10
123
20
102
10
123
20
102
10
123
20
102
10
123
20
117
10
123
20
117
10
123
20
117
10
123
20
117
10
123
20
117
10
123
20
117
10
135
20
117
10
135
20
117
10
135
20
117
10
135
20
117
10
135
20
117
10
135
20
114
10
135
20
114
10
135
20
114
10
135
20
114
10
135
20
114
10
135
20
114
10
135
20
114
10
162
20
114
10
135
20
114
10
162
20
114
10
162
20
114
10
162
20
114
10
162
20
114
10
162
20
114
10
162
20
114
10
162
20
114
10
162
20
114
10
162
20
114
10
162
20
117
10
162
20
117
10
162
20
117
10
162
20
117
10
174
20
117
10
174
20
117
10
174
20
117
0
LWPOLYLINE
5
A9
100
AcDbEntity
8
0
6
CONTINUOUS
62
7
370
0
100
AcDbPolyline
90
5
70
0
43
0
10
69
20
32
10
79
20
32
10
79
20
25
10
69
20
25
10
69
20
32
0
LWPOLYLINE
5
AA
100
AcDbEntity
8
0
6
CONTINUOUS
62
7
370
0
100
AcDbPolyline
90
5
70
0
43
0
10
6
20
78
10
9
20
78
10
9
20
81
10
6
20
81
10
6
20
78
0
LWPOLYLINE
5
AB
100
AcDbEntity
8
0
6
CONTINUOUS
62
7
370
0
100
AcDbPolyline
90
5
70
0
43
0
10
6
20
90
10
9
20
90
10
9
20
93
10
6
20
93
10
6
20
90
0
LWPOLYLINE
5
AC
100
AcDbEntity
8
0
6
CONTINUOUS
62
7
370
0
100
AcDbPolyline
90
5
70
0
43
0
10
6
20
102
10
9
20
102
10
9
20
105
10
6
20
105
10
6
20
102
0
LWPOLYLINE
5
AD
100
AcDbEntity
8
0
6
CONTINUOUS
62
7
370
0
100
AcDbPolyline
90
5
70
0
43
0
10
9
20
114
10
9
20
117
10
6
20
117
10
6
20
114
10
9
20
114
0
LWPOLYLINE
5
AE
100
AcDbEntity
8
0
6
CONTINUOUS
62
7
370
0
100
AcDbPolyline
90
5
70
0
43
0
10
6
20
66
10
9
20
66
10
9
20
69
10
6
20
69
10
6
20
66
0
LWPOLYLINE
5
AF
100
AcDbEntity
8
0
6
CONTINUOUS
62
7
370
0
100
AcDbPolyline
90
5
70
0
43
0
10
51
20
66
10
51
20
69
10
48
20
69
10
48
20
66
10
51
20
66
0
LWPOLYLINE
5
B0
100
AcDbEntity
8
0
6
CONTINUOUS
62
7
370
0
100
AcDbPolyline
90
5
70
0
43
0
10
51
20
114
10
51
20
117
10
48
20
117
10
48
20
114
10
51
20
114
0
LWPOLYLINE
5
B1
100
AcDbEntity
8
0
6
CONTINUOUS
62
7
370
0
100
AcDbPolyline
90
5
70
0
43
0
10
111
20
105
10
108
20
105
10
108
20
102
10
111
20
102
10
111
20
105
0
LWPOLYLINE
5
B2
100
AcDbEntity
8
0
6
CONTINUOUS
62
7
370
0
100
AcDbPolyline
90
5
70
0
43
0
10
111
20
93
10
108
20
93
10
108
20
90
10
111
20
90
10
111
20
93
0
LWPOLYLINE
5
B3
100
AcDbEntity
8
0
6
CONTINUOUS
62
7
370
0
100
AcDbPolyline
90
5
70
0
43
0
10
111
20
81
10
108
20
81
10
108
20
78
10
111
20
78
10
111
20
81
0
LWPOLYLINE
5
B4
100
AcDbEntity
8
0
6
CONTINUOUS
62
7
370
0
100
AcDbPolyline
90
5
70
0
43
0
10
108
20
69
10
108
20
66
10
111
20
66
10
111
20
69
10
108
20
69
0
LWPOLYLINE
5
B5
100
AcDbEntity
8
0
6
CONTINUOUS
62
7
370
0
100
AcDbPolyline
90
5
70
0
43
0
10
111
20
117
10
108
20
117
10
108
20
114
10
111
20
114
10
111
20
117
0
LWPOLYLINE
5
B6
100
AcDbEntity
8
0
6
CONTINUOUS
62
7
370
0
100
AcDbPolyline
90
5
70
0
43
0
10
66
20
117
10
66
20
114
10
69
20
114
10
69
20
117
10
66
20
117
0
LWPOLYLINE
5
B7
100
AcDbEntity
8
0
6
CONTINUOUS
62
7
370
0
100
AcDbPolyline
90
5
70
0
43
0
10
66
20
69
10
66
20
66
10
69
20
66
10
69
20
69
10
66
20
69
0
LWPOLYLINE
5
B8
100
AcDbEntity
8
0
6
CONTINUOUS
62
7
370
0
100
AcDbPolyline
90
152
70
0
43
0
10
18
20
54
10
18
20
54
10
18
20
54
10
18
20
54
10
18
20
54
10
18
20
57
10
18
20
57
10
18
20
57
10
18
20
57
10
18
20
57
10
18
20
57
10
18
20
57
10
18
20
57
10
18
20
57
10
18
20
57
10
45
20
57
10
45
20
57
10
45
20
57
10
45
20
57
10
45
20
57
10
45
20
57
10
45
20
57
10
45
20
57
10
45
20
57
10
45
20
57
10
45
20
57
10
45
20
57
10
45
20
57
10
45
20
57
10
45
20
57
10
45
20
57
10
45
20
57
10
45
20
57
10
45
20
57
10
45
20
57
10
45
20
54
10
63
20
54
10
63
20
54
10
63
20
54
10
63
20
54
10
63
20
54
10
63
20
42
10
63
20
42
10
63
20
42
10
63
20
42
10
63
20
42
10
60
20
42
10
60
20
42
10
60
20
42
10
60
20
15
10
60
20
15
10
60
20
15
10
60
20
15
10
60
20
15
10
60
20
15
10
60
20
15
10
60
20
15
10
60
20
15
10
60
20
15
10
60
20
15
10
60
20
15
10
60
20
15
10
60
20
15
10
60
20
15
10
63
20
15
10
63
20
3
10
63
20
3
10
63
20
3
10
63
20
3
10
63
20
3
10
63
20
3
10
63
20
3
10
45
20
3
10
45
20
3
10
45
20
3
10
45
20
0
10
45
20
-1.23259516441e-32
10
45
20
-5.55111512313e-17
10
45
20
-5.55111512313e-17
10
45
20
0
10
45
20
-5.55111512313e-17
10
45
20
-5.55111512313e-17
10
45
20
-5.55111512313e-17
10
45
20
0
10
45
20
-5.55111512313e-17
10
45
20
-5.55111512313e-17
10
45
20
-5.55111512313e-17
10
45
20
-5.55111512313e-17
10
45
20
-5.55111512313e-17
10
45
20
-5.55111512313e-17
10
45
20
-5.55111512313e-17
10
45
20
-5.55111512313e-17
10
45
20
-5.55111512313e-17
10
45
20
-5.55111512313e-17
10
45
20
-5.55111512313e-17
10
18
20
0
10
18
20
-1.38777878081e-17
10
18
20
0
10
18
20
-4.4408920985e-16
10
18
20
-1.38777878081e-17
10
18
20
-6.93889390394e-17
10
18
20
-6.93889390394e-17
10
18
20
-5.55111512313e-17
10
18
20
-6.93889390394e-17
10
18
20
0
10
18
20
3
10
18
20
3
10
18
20
3
10
18
20
3
10
0
20
3
10
0
20
3
10
2.91433543964e-16
20
3
10
0
20
3
10
0
20
15
10
3
20
15
10
3
20
15
10
3
20
15
10
3
20
15
10
3
20
15
10
3
20
15
10
3
20
15
10
3
20
15
10
3
20
15
10
3
20
15
10
3
20
15
10
3
20
15
10
3
20
15
10
3
20
15
10
3
20
15
10
3
20
15
10
3
20
15
10
3
20
15
10
3
20
15
10
3
20
15
10
3
20
15
10
3
20
15
10
3
20
15
10
3
20
15
10
3
20
15
10
3
20
15
10
3
20
15
10
3
20
42
10
0
20
42
10
1.71025367873e-15
20
42
10
3.93069972798e-15
20
42
10
3.90294415236e-15
20
42
10
0
20
54
10
18
20
54
10
18
20
54
10
18
20
54
10
18
20
54
10
18
20
54
0
LWPOLYLINE
5
B9
100
AcDbEntity
8
0
6
CONTINUOUS
62
7
370
0
100
AcDbPolyline
90
11
70
0
43
0
10
74.7573593134
20
91.4852813744
10
76.8786796558
20
89.363961031
10
74.7573593128
20
87.242640687
10
79
20
82.9999999998
10
79
20
77
10
82
20
77
10
82
20
74
10
76
20
74
10
76
20
81.7573593132
10
70.5147186262
20
87.242640687
10
74.7573593126
20
91.4852813744
0
LWPOLYLINE
5
BA
100
AcDbEntity
8
0
6
CONTINUOUS
62
7
370
0
100
AcDbPolyline
90
11
70
0
43
0
10
83.7573593134
20
91.4852813744
10
85.8786796558
20
89.363961031
10
83.7573593128
20
87.242640687
10
88
20
82.9999999998
10
88
20
77
10
91
20
77
10
91
20
74
10
85
20
74
10
85
20
81.7573593132
10
79.5147186262
20
87.242640687
10
83.7573593126
20
91.4852813744
0
LWPOLYLINE
5
BB
100
AcDbEntity
8
0
6
CONTINUOUS
62
7
370
0
100
AcDbPolyline
90
11
70
0
43
0
10
92.7573593134
20
91.4852813744
10
94.8786796558
20
89.363961031
10
92.7573593128
20
87.242640687
10
97
20
82.9999999998
10
97
20
77
10
100
20
77
10
100
20
74
10
94
20
74
10
94
20
81.7573593132
10
88.5147186262
20
87.242640687
10
92.7573593126
20
91.4852813744
0
LWPOLYLINE
5
BC
100
AcDbEntity
8
0
6
CONTINUOUS
62
7
370
0
100
AcDbPolyline
90
5
70
0
43
0
10
150
20
66
10
147
20
66
10
147
20
69
10
150
20
69
10
150
20
66
0
LWPOLYLINE
5
BD
100
AcDbEntity
8
0
6
CONTINUOUS
62
7
370
0
100
AcDbPolyline
90
152
70
0
43
0
10
129
20
54
10
129
20
54
10
129
20
54
10
129
20
54
10
129
20
54
10
129
20
54
10
129
20
54
10
129
20
54
10
129
20
54
10
129
20
57
10
129
20
57
10
129
20
57
10
129
20
57
10
129
20
57
10
129
20
57
10
186
20
57
10
186
20
57
10
186
20
57
10
186
20
57
10
186
20
57
10
186
20
57
10
186
20
57
10
186
20
57
10
186
20
57
10
186
20
57
10
186
20
57
10
186
20
57
10
186
20
57
10
186
20
57
10
186
20
54
10
186
20
54
10
186
20
54
10
189
20
54
10
189
20
54
10
189
20
54
10
189
20
54
10
189
20
54
10
189
20
54
10
189
20
54
10
189
20
54
10
189
20
54
10
189
20
42
10
189
20
42
10
189
20
42
10
189
20
42
10
189
20
42
10
186
20
42
10
186
20
42
10
186
20
42
10
186
20
15
10
186
20
15
10
186
20
15
10
186
20
15
10
186
20
15
10
186
20
15
10
186
20
15
10
186
20
15
10
186
20
15
10
186
20
15
10
186
20
15
10
186
20
15
10
186
20
15
10
186
20
15
10
186
20
15
10
189
20
15
10
189
20
3
10
189
20
3
10
189
20
3
10
189
20
3
10
189
20
3
10
189
20
3
10
189
20
3
10
186
20
3
10
186
20
3
10
186
20
3
10
186
20
3
10
186
20
3
10
186
20
3
10
186
20
3
10
186
20
3
10
186
20
3
10
186
20
3
10
186
20
0
10
186
20
3
10
186
20
0
10
186
20
0
10
186
20
0
10
186
20
0
10
186
20
0
10
186
20
0
10
186
20
0
10
186
20
0
10
186
20
0
10
186
20
0
10
186
20
0
10
129
20
0
10
129
20
3
10
129
20
3
10
129
20
3
10
129
20
3
10
129
20
3
10
129
20
3
10
129
20
3
10
129
20
3
10
126
20
3
10
129
20
3
10
129
20
3
10
129
20
3
10
129
20
3
10
126
20
3
10
126
20
3
10
126
20
3
10
126
20
3
10
126
20
15
10
129
20
15
10
129
20
15
10
129
20
15
10
129
20
15
10
129
20
15
10
129
20
15
10
129
20
15
10
129
20
15
10
129
20
15
10
129
20
15
10
129
20
15
10
129
20
15
10
129
20
15
10
129
20
15
10
129
20
15
10
129
20
15
10
129
20
15
10
129
20
15
10
129
20
15
10
129
20
15
10
129
20
15
10
129
20
15
10
129
20
15
10
129
20
15
10
129
20
15
10
129
20
15
10
129
20
15
10
129
20
42
10
126
20
42
10
126
20
42
10
126
20
42
10
126
20
42
10
126
20
54
10
129
20
54
10
129
20
54
10
129
20
54
10
129
20
54
10
129
20
54
0
LWPOLYLINE
5
BE
100
AcDbEntity
8
0
6
CONTINUOUS
62
7
370
0
100
AcDbPolyline
90
9
70
0
43
0
10
16
20
85
10
16
20
73
10
67
20
73
10
67
20
85
10
64
20
85
10
64
20
76
10
19
20
76
10
19
20
85
10
16
20
85
0
LWPOLYLINE
5
BF
100
AcDbEntity
8
0
6
CONTINUOUS
62
7
370
0
100
AcDbPolyline
90
9
70
0
43
0
10
33
20
94
10
22
20
94
10
22
20
79
10
33
20
79
10
33
20
82
10
25
20
82
10
25
20
91
10
33
20
91
10
33
20
94
0
LWPOLYLINE
5
C0
100
AcDbEntity
8
0
6
CONTINUOUS
62
7
370
0
100
AcDbPolyline
90
9
70
0
43
0
10
47
20
94
10
36
20
94
10
36
20
79
10
47
20
79
10
47
20
82
10
39
20
82
10
39
20
91
10
47
20
91
10
47
20
94
0
LWPOLYLINE
5
C1
100
AcDbEntity
8
0
6
CONTINUOUS
62
7
370
0
100
AcDbPolyline
90
9
70
0
43
0
10
61
20
94
10
50
20
94
10
50
20
79
10
61
20
79
10
61
20
82
10
53
20
82
10
53
20
91
10
61
20
91
10
61
20
94
0
LWPOLYLINE
5
C2
100
AcDbEntity
8
0
6
CONTINUOUS
62
7
370
0
100
AcDbPolyline
90
9
70
0
43
0
10
67
20
87
10
67
20
99
10
16
20
99
10
16
20
87
10
19
20
87
10
19
20
96
10
64
20
96
10
64
20
87
10
67
20
87
0
LWPOLYLINE
5
C3
100
AcDbEntity
8
0
6
ByLayer
62
256
370
-1
100
AcDbPolyline
90
9
70
0
43
0
10
26.5
20
101
10
26.5
20
107
10
19
20
107
10
19
20
101
10
16
20
101
10
16
20
110
10
29.5
20
110
10
29.5
20
101
10
26.5
20
101
0
LWPOLYLINE
5
C4
100
AcDbEntity
8
0
6
CONTINUOUS
62
7
370
0
100
AcDbPolyline
90
11
70
0
43
0
10
74.7573593126
20
95.2426406872
10
76.878679656
20
97.3639610296
10
79
20
95.2426406866
10
83.2426406872
20
99.4852813738
10
89.242640687
20
99.4852813738
10
89.242640687
20
102.485281374
10
92.242640687
20
102.485281374
10
92.242640687
20
96.4852813738
10
84.4852813738
20
96.4852813738
10
79
20
91
10
74.7573593126
20
95.2426406864
0
LWPOLYLINE
5
C5
100
AcDbEntity
8
0
6
ByLayer
62
256
370
-1
100
AcDbPolyline
90
9
70
0
43
0
10
42
20
101
10
42
20
107
10
34.5
20
107
10
34.5
20
101
10
31.5
20
101
10
31.5
20
110
10
45
20
110
10
45
20
101
10
42
20
101
0
LWPOLYLINE
5
C6
100
AcDbEntity
8
0
6
ByLayer
62
256
370
-1
100
AcDbPolyline
90
9
70
0
43
0
10
57.5
20
101
10
57.5
20
107
10
50
20
107
10
50
20
101
10
47
20
101
10
47
20
110
10
60.5
20
110
10
60.5
20
101
10
57.5
20
101
0
LWPOLYLINE
5
C7
100
AcDbEntity
8
0
6
ByLayer
62
256
370
-1
100
AcDbPolyline
90
9
70
0
43
0
10
73
20
101
10
73
20
107
10
65.5
20
107
10
65.5
20
101
10
62.5
20
101
10
62.5
20
110
10
76
20
110
10
76
20
101
10
73
20
101
0
LWPOLYLINE
5
C8
100
AcDbEntity
8
0
6
CONTINUOUS
62
7
370
0
100
AcDbPolyline
90
9
70
0
43
0
10
218
20
5.55111512313e-17
10
218
20
21
10
221
20
21
10
221
20
78
10
218
20
78
10
218
20
99
10
191
20
99
10
191
20
5.55111512313e-17
10
218
20
5.55111512313e-17
0
LWPOLYLINE
5
C9
100
AcDbEntity
8
0
6
CONTINUOUS
62
7
370
0
100
AcDbPolyline
90
5
70
0
43
0
10
76
20
69
10
76
20
66
10
79
20
66
10
79
20
69
10
76
20
69
0
LWPOLYLINE
5
CA
100
AcDbEntity
8
0
6
CONTINUOUS
62
7
370
0
100
AcDbPolyline
90
5
70
0
43
0
10
41
20
66
10
41
20
69
10
38
20
69
10
38
20
66
10
41
20
66
0
LWPOLYLINE
5
CB
100
AcDbEntity
8
0
6
CONTINUOUS
62
7
370
0
100
AcDbPolyline
90
5
70
0
43
0
10
41
20
114
10
41
20
117
10
38
20
117
10
38
20
114
10
41
20
114
0
LWPOLYLINE
5
CC
100
AcDbEntity
8
0
6
CONTINUOUS
62
7
370
0
100
AcDbPolyline
90
5
70
0
43
0
10
76
20
117
10
76
20
114
10
79
20
114
10
79
20
117
10
76
20
117
0
LWPOLYLINE
5
CD
100
AcDbEntity
8
0
6
ByLayer
62
256
370
-1
100
AcDbPolyline
90
11
70
0
43
0
10
180
20
60
10
188
20
60
10
188
20
60
10
188
20
60
10
188
20
76
10
180
20
76
10
180
20
73
10
185
20
73
10
185
20
63
10
180
20
63
10
180
20
60
0
LWPOLYLINE
5
CE
100
AcDbEntity
8
0
6
ByLayer
62
256
370
-1
100
AcDbPolyline
90
11
70
0
43
0
10
180
20
79
10
188
20
79
10
188
20
79
10
188
20
79
10
188
20
95.1
10
180
20
95.1
10
180
20
92.1
10
185
20
92.1
10
185
20
82
10
180
20
82
10
180
20
79
0
LWPOLYLINE
5
CF
100
AcDbEntity
8
0
6
CONTINUOUS
62
7
370
0
100
AcDbPolyline
90
126
70
0
43
0
10
63
20
71
10
63
20
71
10
63
20
71
10
63
20
63
10
75
20
63
10
75
20
63
10
75
20
63
10
75
20
63
10
75
20
63
10
75
20
63
10
75
20
63
10
75
20
63
10
75
20
63
10
75
20
60
10
102
20
60
10
102
20
60
10
102
20
60
10
102
20
60
10
102
20
60
10
102
20
60
10
102
20
60
10
102
20
60
10
102
20
60
10
102
20
60
10
102
20
60
10
102
20
60
10
102
20
60
10
102
20
60
10
102
20
60
10
102
20
60
10
102
20
60
10
102
20
63
10
102
20
63
10
102
20
63
10
102
20
63
10
102
20
63
10
102
20
63
10
102
20
63
10
117
20
63
10
117
20
63
10
117
20
63
10
117
20
78
10
114
20
78
10
114
20
78
10
114
20
78
10
114
20
78
10
114
20
78
10
114
20
78
10
114
20
78
10
114
20
78
10
114
20
78
10
114
20
78
10
114
20
78
10
114
20
78
10
114
20
78
10
114
20
78
10
114
20
78
10
114
20
78
10
114
20
78
10
114
20
78
10
114
20
78
10
114
20
78
10
114
20
105
10
114
20
105
10
114
20
105
10
114
20
105
10
114
20
105
10
114
20
105
10
114
20
105
10
114
20
105
10
114
20
105
10
114
20
105
10
114
20
105
10
117
20
105
10
117
20
105
10
117
20
120
10
102
20
120
10
102
20
120
10
102
20
120
10
102
20
120
10
102
20
120
10
102
20
120
10
102
20
120
10
102
20
120
10
102
20
120
10
102
20
120
10
102
20
123
10
102
20
123
10
102
20
123
10
102
20
123
10
102
20
123
10
102
20
123
10
102
20
123
10
102
20
123
10
102
20
123
10
75
20
123
10
102
20
123
10
102
20
123
10
75
20
123
10
75
20
123
10
102
20
123
10
75
20
123
10
75
20
123
10
75
20
120
10
75
20
120
10
75
20
120
10
75
20
120
10
75
20
120
10
75
20
120
10
75
20
120
10
75
20
120
10
75
20
120
10
63
20
120
10
63
20
112
10
63
20
112
10
63
20
112
10
89
20
112
10
89
20
117
10
89
20
117
10
97
20
117
10
97
20
117
10
97
20
112
10
97
20
112
10
103
20
112
10
103
20
71
10
63
20
71
0
LWPOLYLINE
5
D0
100
AcDbEntity
8
0
6
CONTINUOUS
62
7
370
0
100
AcDbPolyline
90
5
70
0
43
0
10
100
20
114
10
100
20
117
10
103
20
117
10
103
20
114
10
100
20
114
0
LWPOLYLINE
5
D1
100
AcDbEntity
8
0
6
CONTINUOUS
62
7
370
0
100
AcDbPolyline
90
5
70
0
43
0
10
100
20
66
10
100
20
69
10
103
20
69
10
103
20
66
10
100
20
66
0
LWPOLYLINE
5
D2
100
AcDbEntity
8
0
6
CONTINUOUS
62
7
370
0
100
AcDbPolyline
90
5
70
0
43
0
10
14
20
66
10
17
20
66
10
17
20
69
10
14
20
69
10
14
20
66
0
LWPOLYLINE
5
D3
100
AcDbEntity
8
0
6
CONTINUOUS
62
7
370
0
100
AcDbPolyline
90
5
70
0
43
0
10
17
20
117
10
17
20
114
10
14
20
114
10
14
20
117
10
17
20
117
0
LWPOLYLINE
5
D4
100
AcDbEntity
8
0
6
CONTINUOUS
62
7
370
0
100
AcDbPolyline
90
126
70
0
43
0
10
54
20
112
10
54
20
112
10
54
20
112
10
54
20
120
10
42
20
120
10
42
20
120
10
42
20
120
10
42
20
120
10
42
20
120
10
42
20
120
10
42
20
120
10
42
20
120
10
42
20
120
10
42
20
123
10
15
20
123
10
15
20
123
10
15
20
123
10
15
20
123
10
15
20
123
10
15
20
123
10
15
20
123
10
15
20
123
10
15
20
123
10
15
20
123
10
15
20
123
10
15
20
123
10
15
20
123
10
15
20
123
10
15
20
123
10
15
20
123
10
15
20
123
10
15
20
120
10
15
20
120
10
15
20
120
10
15
20
120
10
15
20
120
10
15
20
120
10
15
20
120
10
0
20
120
10
0
20
120
10
0
20
120
10
0
20
105
10
3
20
105
10
3
20
105
10
3
20
105
10
3
20
105
10
3
20
105
10
3
20
105
10
3
20
105
10
3
20
105
10
3
20
105
10
3
20
105
10
3
20
105
10
3
20
105
10
3
20
105
10
3
20
105
10
3
20
105
10
3
20
105
10
3
20
105
10
3
20
105
10
3
20
105
10
3
20
105
10
3
20
78
10
3
20
78
10
3
20
78
10
3
20
78
10
3
20
78
10
3
20
78
10
3
20
78
10
3
20
78
10
3
20
78
10
3
20
78
10
3
20
78
10
0
20
78
10
0
20
78
10
7.1054273576e-15
20
63
10
15
20
63
10
15
20
63
10
15
20
63
10
15
20
63
10
15
20
63
10
15
20
63
10
15
20
63
10
15
20
63
10
15
20
63
10
15
20
63
10
15
20
60
10
15
20
60
10
15
20
60
10
15
20
60
10
15
20
60
10
15
20
60
10
15
20
60
10
15
20
60
10
15
20
60
10
42
20
60
10
15
20
60
10
15
20
60
10
42
20
60
10
42
20
60
10
15
20
60
10
42
20
60
10
42
20
60
10
42
20
63
10
42
20
63
10
42
20
63
10
42
20
63
10
42
20
63
10
42
20
63
10
42
20
63
10
42
20
63
10
42
20
63
10
54
20
63
10
54
20
71
10
54
20
71
10
54
20
71
10
14
20
71
10
14
20
112
10
20
20
112
10
20
20
117
10
20
20
117
10
28
20
117
10
28
20
117
10
28
20
112
10
28
20
112
10
54
20
112
0
LWPOLYLINE
5
D5
100
AcDbEntity
8
0
6
CONTINUOUS
62
7
370
0
100
AcDbPolyline
90
51
70
0
43
0
10
256
20
35.035
10
255.653080719
20
34.7462134821
10
255.245168939
20
34.9398728815
10
254.981014871
20
34.5736626522
10
254.53776669
20
34.6597925175
10
254.372984288
20
34.2393950105
10
253.922241937
20
34.2125876076
10
253.867185086
20
33.7644179444
10
253.437270365
20
33.6263576809
10
253.495398489
20
33.1785760099
10
253.11332452
20
32.9379377199
10
253.280985216
20
32.51867981
10
252.970759113
20
32.1905836825
10
253.237417642
20
31.8261930502
10
253.018532052
20
31.4312545713
10
253.367433278
20
31.1446272202
10
253.253641586
20
30.7076618271
10
253.662862762
20
30.5168076079
10
253.66131492
20
30.0652714432
10
254.105143175
20
29.9821824283
10
254.215936439
20
29.54444717
10
254.666484411
20
29.5743441478
10
254.882657233
20
29.1779143119
10
255.311615335
20
29.3189187454
10
255.619584782
20
28.9887034766
10
256
20
29.2319555385
10
256.380415218
20
28.9887034766
10
256.688384665
20
29.3189187454
10
257.117342767
20
29.1779143119
10
257.333515589
20
29.5743441478
10
257.784063561
20
29.54444717
10
257.894856825
20
29.9821824283
10
258.33868508
20
30.0652714432
10
258.337137238
20
30.5168076079
10
258.746358414
20
30.7076618271
10
258.632566722
20
31.1446272202
10
258.981467948
20
31.4312545713
10
258.762582358
20
31.8261930502
10
259.029240887
20
32.1905836825
10
258.719014784
20
32.51867981
10
258.88667548
20
32.9379377199
10
258.504601511
20
33.1785760099
10
258.562729635
20
33.6263576809
10
258.132814914
20
33.7644179444
10
258.077758063
20
34.2125876076
10
257.627015712
20
34.2393950105
10
257.46223331
20
34.6597925175
10
257.018985129
20
34.5736626521
10
256.754831061
20
34.9398728815
10
256.346919281
20
34.7462134821
10
256
20
35.035
0
ARC
5
D6
100
AcDbEntity
8
0
6
ByLayer
62
256
370
-1
100
AcDbCircle
10
256
20
32
40
32
100
AcDbArc
50
0
51
0
0
LWPOLYLINE
5
D7
100
AcDbEntity
8
0
6
CONTINUOUS
62
7
370
0
100
AcDbPolyline
90
51
70
0
43
0
10
256
20
102.035
10
255.653080719
20
101.746213482
10
255.245168939
20
101.939872881
10
254.981014871
20
101.573662652
10
254.53776669
20
101.659792517
10
254.372984288
20
101.239395011
10
253.922241937
20
101.212587608
10
253.867185086
20
100.764417944
10
253.437270365
20
100.626357681
10
253.495398489
20
100.17857601
10
253.11332452
20
99.9379377199
10
253.280985216
20
99.51867981
10
252.970759113
20
99.1905836825
10
253.237417642
20
98.8261930502
10
253.018532052
20
98.4312545713
10
253.367433278
20
98.1446272202
10
253.253641586
20
97.7076618271
10
253.662862762
20
97.5168076079
10
253.66131492
20
97.0652714432
10
254.105143175
20
96.9821824283
10
254.215936439
20
96.54444717
10
254.666484411
20
96.5743441478
10
254.882657233
20
96.1779143119
10
255.311615335
20
96.3189187454
10
255.619584782
20
95.9887034766
10
256
20
96.2319555385
10
256.380415218
20
95.9887034766
10
256.688384665
20
96.3189187454
10
257.117342767
20
96.1779143119
10
257.333515589
20
96.5743441478
10
257.784063561
20
96.54444717
10
257.894856825
20
96.9821824283
10
258.33868508
20
97.0652714432
10
258.337137238
20
97.5168076079
10
258.746358414
20
97.7076618271
10
258.632566722
20
98.1446272202
10
258.981467948
20
98.4312545713
10
258.762582358
20
98.8261930502
10
259.029240887
20
99.1905836825
10
258.719014784
20
99.51867981
10
258.88667548
20
99.9379377199
10
258.504601511
20
100.17857601
10
258.562729635
20
100.626357681
10
258.132814914
20
100.764417944
10
258.077758063
20
101.212587608
10
257.627015712
20
101.23939501
10
257.46223331
20
101.659792517
10
257.018985129
20
101.573662652
10
256.754831061
20
101.939872881
10
256.346919281
20
101.746213482
10
256
20
102.035
0
ARC
5
D8
100
AcDbEntity
8
0
6
ByLayer
62
256
370
-1
100
AcDbCircle
10
256
20
99
40
32
100
AcDbArc
50
0
51
0
0
ENDSEC
0
SECTION
2
OBJECTS
0
DICTIONARY
5
C
330
0
100
AcDbDictionary
281
1
3
ACAD_GROUP
350
D
0
DICTIONARY
5
D
330
C
100
AcDbDictionary
281
1
0
ENDSEC
0
EOF
